<svg width="182" height="281" viewBox="0 0 182 281" fill="none" xmlns="http://www.w3.org/2000/svg">
<path d="M12.7365 165.373C22.8724 144.596 51.2726 112.662 51.2726 112.662C51.2726 112.662 24.3023 109.088 14.5289 73.3513C6.41672 43.6892 23.5431 14.4798 52.6163 4.23021C77.96 -4.70456 105.25 6.11971 119.116 21.7302C138.833 43.9271 133.616 65.2302 133.616 65.2302C133.616 65.2302 135.289 66.8041 136.116 58.2302C136.116 58.2302 136.889 28.2711 137.5 23C138.369 15.5 143.344 10.2302 149.116 10.2302C162.559 10.2302 169.57 49.2291 165.089 68.8843C160.422 89.3543 148.061 101.047 148.061 101.047L158.116 124.73C158.116 124.73 162.253 124.276 163.116 127.73C164.116 131.73 161.616 133.73 161.616 133.73L165.089 148.398C165.089 148.398 168.132 151.307 168.616 153.73C169.116 156.23 168.616 163.73 168.616 163.73C168.616 163.73 183.001 185.922 181.116 209.73C180.288 220.198 178.128 223.673 172.258 232.379C167.242 239.819 156.116 248.73 156.116 248.73C156.116 248.73 157.466 258.259 152.616 261.73C148.592 264.611 145.116 265.23 139.099 264.542C129.181 263.408 123.116 252.73 123.116 252.73C123.116 252.73 102.192 266.054 100.616 269.73C99.1163 273.23 100.616 277.23 92.6163 279.73C86.1342 281.756 73.7503 278.378 68.6163 272.73C63.6163 267.23 55.6163 252.73 55.6163 239.23C55.6163 234.23 70.1163 230.23 78.1163 219.23C80.7074 215.667 81.6163 207.73 81.6163 207.73C81.6163 207.73 75.9563 199.102 75.1163 188.602C74.8828 185.682 76.1118 185.757 75.1163 181.23C73.9872 176.095 73.0417 172.844 69.6163 168.73C68.7451 167.684 67.1163 169.23 65.1163 166.23C63.1163 163.23 66.6163 159.73 66.6163 159.73C66.6163 159.73 65.6163 156.23 63.6163 157.23C62.7019 157.687 47.6879 172.52 32.4527 185.922C32.4527 185.922 16.3212 195.749 10.048 188.602C3.77471 181.455 8.95606 173.122 12.7365 165.373Z" fill="#F9F9F9"/>
<path d="M137.5 23C138.369 15.5 143.344 10.2302 149.116 10.2302C162.559 10.2302 169.57 49.2291 165.089 68.8843C160.422 89.3543 148.061 101.047 148.061 101.047L158.116 124.73C158.116 124.73 162.253 124.276 163.116 127.73C164.116 131.73 161.616 133.73 161.616 133.73L165.089 148.398C165.089 148.398 168.132 151.307 168.616 153.73C169.116 156.23 168.616 163.73 168.616 163.73C168.616 163.73 183.001 185.922 181.116 209.73C180.288 220.198 178.128 223.673 172.258 232.379C167.242 239.819 156.116 248.73 156.116 248.73C156.116 248.73 157.466 258.259 152.616 261.73C148.592 264.611 145.116 265.23 139.099 264.542C129.181 263.408 123.116 252.73 123.116 252.73C123.116 252.73 102.192 266.054 100.616 269.73C99.1163 273.23 100.616 277.23 92.6163 279.73C86.1342 281.756 73.7503 278.378 68.6163 272.73C63.6163 267.23 55.6163 252.73 55.6163 239.23C55.6163 234.23 70.1163 230.23 78.1163 219.23C80.7074 215.667 81.6163 207.73 81.6163 207.73C81.6163 207.73 75.9563 199.102 75.1163 188.602C74.8828 185.682 76.1118 185.757 75.1163 181.23C73.9872 176.095 73.0417 172.844 69.6163 168.73C68.7451 167.684 67.1163 169.23 65.1163 166.23C63.1163 163.23 66.6163 159.73 66.6163 159.73C66.6163 159.73 65.6163 156.23 63.6163 157.23C62.7019 157.687 47.6879 172.52 32.4527 185.922C32.4527 185.922 16.3212 195.749 10.048 188.602C3.77471 181.455 8.95606 173.122 12.7365 165.373C22.8724 144.596 51.2726 112.662 51.2726 112.662C51.2726 112.662 24.3023 109.088 14.5289 73.3513C6.41672 43.6892 23.5431 14.4798 52.6163 4.23021C77.96 -4.70456 105.25 6.11971 119.116 21.7302C138.833 43.9271 133.616 65.2302 133.616 65.2302C133.616 65.2302 135.289 66.8041 136.116 58.2302M137.5 23C136.889 28.2711 136.116 58.2302 136.116 58.2302M137.5 23L136.116 58.2302" stroke="black"/>
<path d="M114.116 137.73L67.6163 159.23C67.6163 159.23 63.6164 163.23 65.1163 165.73C66.6163 168.23 69 168 69 168C69 168 148.616 136.73 151.116 135.73C154.636 134.322 160.616 133.73 160.616 133.73C160.616 133.73 163.95 131.73 162.616 127.73C161.616 124.73 157.616 125.23 157.616 125.23L126.616 134.23C126.616 134.23 124.882 131.583 123.116 131.23C120.616 130.73 114.116 137.73 114.116 137.73Z" fill="#DF1561"/>
<path d="M89.1164 153.23C88.4458 151.819 89.1164 149.73 89.1164 149.73L98.6164 145.23C98.6164 145.23 100.093 146.595 100.616 147.73C101.275 149.16 101.116 151.73 101.116 151.73L92.1164 155.73C92.1164 155.73 89.771 154.608 89.1164 153.23Z" fill="#F0F4F5"/>
<path d="M149.116 133.73L140.616 136.23C140.616 136.23 139.116 134.477 139.116 132.73C139.116 130.73 147.664 128.778 148.616 129.73C149.568 130.682 149.116 133.73 149.116 133.73Z" fill="#F0F4F5"/>
<path d="M135.116 171.73C113.513 180.906 74.1163 175.73 74.1163 175.73C74.1163 175.73 75.3267 178.712 75.6163 180.73C75.8938 182.663 76 186 76 186C76 186 111.97 191.078 133.616 183.73C161.616 174.225 168.116 163.73 168.116 163.73C168.116 163.73 169.457 155.603 167.5 152C166.641 150.418 165 149 165 149C165 149 164.116 159.412 135.116 171.73Z" fill="#A8C7DE"/>
<path d="M28.6163 151.73L24.6163 146.73L35.1163 132.73L43.1163 137.23C43.1163 137.23 43.3682 143.23 39.1163 147.73C33.1163 154.08 28.6163 151.73 28.6163 151.73Z" fill="#A8C7DE"/>
<path d="M60 166L43.6163 181.23C43.6163 181.23 54.6163 208.23 59.1163 209.23C65.5031 210.65 75.6163 203.23 75.6163 203.23C75.6163 203.23 71.9998 195.531 71.1163 190.73C70.2301 185.914 70.6163 178.73 70.6163 178.73L63 167L60 166Z" fill="#60BED8" stroke="black"/>
<path d="M1.11635 95.7302C-0.383676 89.2302 13.1163 83.2302 13.1163 83.2302C13.1163 83.2302 19.2365 95.7868 25.6163 101.73C32.3328 107.987 46.1163 113.23 46.1163 113.23L23.6163 141.23C23.6163 141.23 2.27021 100.73 1.11635 95.7302Z" fill="#60BED8" stroke="black"/>
<path d="M140.616 103.23C137.116 103.23 133.402 105.23 133.116 107.23C132.759 109.73 138.616 121.23 141.616 122.23C144.116 123.064 148.45 120.73 149.116 118.73C149.783 116.73 142.116 103.23 140.616 103.23Z" fill="#A8C7DE"/>
<path d="M139.616 104.73C137.708 104.491 135.989 105.23 135.116 106.73C134.244 108.23 136.616 112.73 138.116 113.23C139.065 113.546 143.046 112.44 143.616 110.73C144.005 109.565 141.525 104.969 139.616 104.73Z" fill="#142D57"/>
<circle cx="85.1163" cy="123.73" r="5" fill="#A8C7DE"/>
<path d="M164 35L162.5 29C162.5 29 156.5 32 151.5 32.5C146.643 32.9857 137.5 32 137.5 32V38C137.5 38 145.964 39.6035 152 39C157 38.5 164 35 164 35Z" fill="#00FFD1"/>
<path d="M55.6164 17.2302C33.7896 29.2381 23.8237 55.6165 33.1164 78.7302C43.9829 105.758 70.6164 112.23 104.616 96.2302C125.055 86.612 140.377 63.2302 122.616 34.2302C109.11 12.1764 78.2748 4.76473 55.6164 17.2302Z" fill="#132C56"/>
<path d="M84.1162 24.7302C82.2325 29.2302 83.1163 32.2302 83.1163 32.2302C83.1163 32.2302 98.4574 38.7569 105.616 46.2302C116.116 57.1915 119.116 71.2302 119.116 71.2302C119.116 71.2302 120.012 73.2109 121.116 73.2302C122.092 73.2474 123.116 71.7302 123.116 71.7302C123.116 71.7302 128.001 56.5555 117.616 38.2302C110.816 26.2302 92.9447 18.5231 90.1163 19.2302C88.6163 19.6052 85.7907 20.7302 84.1162 24.7302Z" fill="#F6F9F9"/>
<circle cx="67.1163" cy="73.7302" r="10" fill="#5DB8D1"/>
<circle cx="57.1163" cy="87.7302" r="3" fill="#5DB8D1"/>
<ellipse cx="24.5658" cy="80.1529" rx="4" ry="5.48085" transform="rotate(-17.308 24.5658 80.1529)" fill="#132C56"/>
<path d="M59.5 256.5C56 246.5 53.5 238.5 58.5 235C62.6941 232.064 66.5 230.5 75.5 223C79.6272 219.561 82.1163 207.73 82.1163 207.73C82.1163 207.73 79.8111 204.77 78 199.5C76.5364 195.241 74.9675 191.873 75.5 187.5C75.6946 185.902 75.5 183.5 75.5 183.5L74.1163 175.73L69.5 168.5C69.5 168.5 66.0759 167.807 65 166C63.6086 163.663 67 159.5 67 159.5C67 159.5 66 157 64 157C62.4189 157 40.5 179 32.5 185.5C28.3025 188.91 20 191.5 14 190.5C10.4173 189.903 8.61633 185.73 8.61633 185.73C8.61633 185.73 15.1968 187.711 19.1163 187.23C23.1118 186.74 25.4803 186.031 28.1163 183.23C36.1163 174.73 41.5322 165.863 54.1163 152.23C60.1163 145.73 79.6163 131.716 79.6163 139.23C79.6163 143.73 77.6163 160.897 84.6163 159.73C87.7356 159.21 93.1163 155.73 93.1163 155.73L118.116 145.73C118.116 145.73 122.006 142.312 123.116 140.73C124.679 138.504 126.477 134.23 126.477 134.23L127.5 134L129.5 133.5C129.5 133.5 128.808 137.494 130.116 138.73C131.543 140.078 135.116 139.23 135.116 139.23L162.116 130.23C162.116 130.23 161.44 134.319 159.616 135.23C156.616 136.73 132.616 147.23 132.616 147.23L111.116 157.23L85.6163 164.73C85.6163 164.73 87.4899 174.653 91.1163 179.73C93.6163 183.23 97.2652 184.23 101.116 184.23C109.616 184.23 126.897 182.018 143.616 176.23C156.616 171.73 168.5 159.5 168.5 159.5C168.5 159.5 168.75 162.5 167.5 165C166.5 167 156.116 181.23 144.116 186.73C126.673 194.725 104.212 193.261 99.6163 195.23C96.1163 196.73 101.067 212.865 97.1163 223.73C91.1163 240.23 77.1163 237.73 78.1163 247.23C78.5931 251.76 83.6163 258.23 88.6163 260.73C92.1484 262.496 83.1163 262.23 79.6163 260.73C74.9296 258.722 80.9552 270.952 86.1163 273.73C90.4183 276.046 99 273.73 99 273.73C99 273.73 98.4837 277.11 95 278.5C87.8739 281.344 78.012 279.234 71.5 274.5C65.5862 270.201 61.848 263.209 59.5 256.5Z" fill="#147575" fill-opacity="0.3"/>
<path d="M139.116 259.23C143.846 262.736 154 259.5 154 259.5C154 259.5 150.616 266.299 137.616 264.23C130.327 263.07 123.116 252.23 123.116 252.23C123.116 252.23 134.662 239.555 138.116 229.23C141.291 219.741 140.116 203.73 140.116 203.73C140.116 203.73 143.773 194.143 146.116 197.23C146.752 198.068 147.616 201.23 147.616 201.23C147.616 201.23 149.616 220.73 148.116 229.23C146.87 236.29 139.616 245.23 139.616 245.23C139.616 245.23 143.116 246.655 143.116 248.73C143.116 249.73 135.824 248.114 134.616 251.23C134.122 252.505 135.116 254.73 135.116 254.73C135.116 254.73 137.228 257.83 139.116 259.23Z" fill="#147575" fill-opacity="0.3"/>
</svg>
