<svg width="95" height="162" viewBox="0 0 95 162" fill="none" xmlns="http://www.w3.org/2000/svg">
<path d="M51.8042 105.919C83.5188 105.919 94.0903 117.457 94.0903 138.226C94.0903 154.522 75.1496 161.957 48.941 161.957C22.7325 161.957 3.57156 155.148 3.57156 138.226C3.57156 121.303 20.0896 105.919 51.8042 105.919Z" fill="black" fill-opacity="0.3"/>
<path d="M7.0362 85.5389C12.2492 74.853 26.8558 58.4288 26.8558 58.4288C26.8558 58.4288 12.9846 56.5908 7.95804 38.2111C3.78587 22.9555 12.5941 7.93282 27.5468 2.66133C40.5814 -1.93392 54.6172 3.63312 61.7485 11.6618C71.8888 23.0779 69.206 34.0343 69.206 34.0343C69.206 34.0343 70.0665 34.8438 70.4918 30.4341C70.4918 30.4341 70.8893 15.0258 71.2034 12.3148C71.6505 8.45751 74.2092 5.74719 77.1778 5.74719C84.0916 5.74719 87.6972 25.8048 85.3926 35.9136C82.9925 46.4416 76.6351 52.4554 76.6351 52.4554L81.8066 64.6358C81.8066 64.6358 83.9341 64.4022 84.3782 66.1787C84.8925 68.236 83.6067 69.2646 83.6067 69.2646L85.3926 76.8085C85.3926 76.8085 86.9577 78.3047 87.2069 79.5508C87.4641 80.8366 87.2069 84.6939 87.2069 84.6939C87.2069 84.6939 94.6051 96.1072 93.6358 108.352C93.2096 113.736 92.099 115.523 89.08 120.001C86.5001 123.827 80.778 128.41 80.778 128.41C80.778 128.41 81.4724 133.311 78.9779 135.096C76.908 136.578 75.1206 136.896 72.0259 136.543C66.9249 135.959 63.8058 130.468 63.8058 130.468C63.8058 130.468 53.0441 137.32 52.2338 139.211C51.4623 141.011 52.2338 143.068 48.1193 144.354C44.7854 145.396 38.4163 143.658 35.7758 140.754C33.2043 137.925 29.0898 130.468 29.0898 123.524C29.0898 120.953 36.5473 118.896 40.6618 113.238C41.9944 111.406 42.4619 107.324 42.4619 107.324C42.4619 107.324 39.5509 102.886 39.1188 97.4857C38.9987 95.9841 39.6308 96.0227 39.1188 93.6944C38.5381 91.0534 38.0518 89.3811 36.2901 87.2655C35.842 86.7273 35.0043 87.5226 33.9757 85.9797C32.9471 84.4368 34.7472 82.6367 34.7472 82.6367C34.7472 82.6367 34.2329 80.8366 33.2043 81.3509C32.734 81.5861 25.0121 89.2148 17.1764 96.1072C17.1764 96.1072 8.87986 101.162 5.65346 97.4857C2.42706 93.8098 5.09188 89.5245 7.0362 85.5389Z" fill="#F9F9F9"/>
<path d="M71.2034 12.3148C71.6504 8.45751 74.2092 5.74719 77.1778 5.74719C84.0916 5.74719 87.6972 25.8048 85.3926 35.9136C82.9925 46.4416 76.6351 52.4554 76.6351 52.4554L81.8066 64.6358C81.8066 64.6358 83.9341 64.4022 84.3782 66.1787C84.8925 68.236 83.6067 69.2646 83.6067 69.2646L85.3926 76.8085C85.3926 76.8085 86.9577 78.3047 87.2069 79.5508C87.4641 80.8366 87.2069 84.6939 87.2069 84.6939C87.2069 84.6939 94.6051 96.1072 93.6358 108.352C93.2096 113.736 92.099 115.523 89.08 120.001C86.5001 123.827 80.778 128.41 80.778 128.41C80.778 128.41 81.4724 133.311 78.9779 135.096C76.908 136.578 75.1206 136.896 72.0259 136.543C66.9249 135.959 63.8058 130.468 63.8058 130.468C63.8058 130.468 53.0441 137.32 52.2338 139.211C51.4623 141.011 52.2338 143.068 48.1193 144.354C44.7854 145.396 38.4163 143.658 35.7758 140.754C33.2043 137.925 29.0898 130.468 29.0898 123.524C29.0898 120.953 36.5473 118.896 40.6618 113.238C41.9944 111.406 42.4619 107.324 42.4619 107.324C42.4619 107.324 39.5509 102.886 39.1188 97.4857C38.9987 95.9841 39.6308 96.0227 39.1188 93.6944C38.5381 91.0534 38.0518 89.3811 36.2901 87.2655C35.842 86.7274 35.0043 87.5226 33.9757 85.9797C32.9471 84.4368 34.7472 82.6367 34.7472 82.6367C34.7472 82.6367 34.2329 80.8366 33.2043 81.3509C32.734 81.5861 25.0121 89.2148 17.1764 96.1072C17.1764 96.1072 8.87986 101.162 5.65346 97.4857C2.42706 93.8098 5.09188 89.5245 7.0362 85.5389C12.2492 74.853 26.8558 58.4288 26.8558 58.4288C26.8558 58.4288 12.9846 56.5908 7.95804 38.2111C3.78587 22.9555 12.5941 7.93282 27.5468 2.66133C40.5814 -1.93392 54.6172 3.63312 61.7485 11.6618C71.8888 23.0779 69.206 34.0343 69.206 34.0343C69.206 34.0343 70.0665 34.8438 70.4918 30.4341M71.2034 12.3148C70.8893 15.0258 70.4918 30.4341 70.4918 30.4341M71.2034 12.3148L70.4918 30.4341" stroke="black"/>
<path d="M59.177 71.3219L35.2615 82.3795C35.2615 82.3795 33.2043 84.4368 33.9757 85.7226C34.7472 87.0083 35.9731 86.8899 35.9731 86.8899C35.9731 86.8899 76.9207 70.8075 78.2065 70.2932C80.0169 69.5691 83.0924 69.2646 83.0924 69.2646C83.0924 69.2646 84.8068 68.236 84.121 66.1787C83.6067 64.6358 81.5495 64.893 81.5495 64.893L65.6058 69.5218C65.6058 69.5218 64.7137 68.1604 63.8058 67.9788C62.52 67.7217 59.177 71.3219 59.177 71.3219Z" fill="#DF1561"/>
<path d="M46.3192 79.2937C45.9744 78.568 46.3192 77.4936 46.3192 77.4936L51.2052 75.1792C51.2052 75.1792 51.9646 75.881 52.2338 76.4649C52.5727 77.2002 52.4909 78.5222 52.4909 78.5222L47.8621 80.5794C47.8621 80.5794 46.6559 80.0021 46.3192 79.2937Z" fill="#F0F4F5"/>
<path d="M77.1778 69.2646L72.8062 70.5504C72.8062 70.5504 72.0347 69.6485 72.0347 68.7503C72.0348 67.7217 76.4311 66.7178 76.9207 67.2074C77.4103 67.697 77.1778 69.2646 77.1778 69.2646Z" fill="#F0F4F5"/>
<path d="M69.9775 88.8084C58.8667 93.5278 38.6046 90.8657 38.6046 90.8657C38.6046 90.8657 39.2271 92.3994 39.376 93.4372C39.5187 94.4313 39.5733 96.1475 39.5733 96.1475C39.5733 96.1475 58.0734 98.7592 69.2061 94.9801C83.6068 90.0917 86.9498 84.6939 86.9498 84.6939C86.9498 84.6939 87.6393 80.5142 86.6328 78.6609C86.1909 77.8473 85.347 77.118 85.347 77.118C85.347 77.118 84.8925 82.4732 69.9775 88.8084Z" fill="#A8C7DE"/>
<path d="M15.2034 78.5222L13.1461 75.9506L18.5464 68.7503L22.6609 71.0647C22.6609 71.0647 22.7905 74.1505 20.6037 76.4649C17.5178 79.7309 15.2034 78.5222 15.2034 78.5222Z" fill="#A8C7DE"/>
<path d="M31.3444 85.8613L22.9181 93.6944C22.9181 93.6944 28.5755 107.581 30.8899 108.095C34.1747 108.825 39.376 105.009 39.376 105.009C39.376 105.009 37.516 101.05 37.0616 98.5803C36.6058 96.1033 36.8045 92.4086 36.8045 92.4086L32.8873 86.3756L31.3444 85.8613Z" fill="#60BED8" stroke="black"/>
<path d="M1.05984 49.7208C0.28836 46.3778 7.23156 43.2919 7.23156 43.2919C7.23156 43.2919 10.3792 49.7499 13.6605 52.8067C17.1148 56.0247 24.2038 58.7212 24.2038 58.7212L12.6318 73.1219C12.6318 73.1219 1.65328 52.2923 1.05984 49.7208Z" fill="#60BED8" stroke="black"/>
<path d="M72.8062 53.5781C71.0061 53.5781 69.0958 54.6068 68.9489 55.6354C68.7651 56.9211 71.7776 62.8357 73.3205 63.35C74.6063 63.7786 76.8349 62.5786 77.1778 61.5499C77.5207 60.5213 73.5776 53.5781 72.8062 53.5781Z" fill="#A8C7DE"/>
<path d="M72.2919 54.3496C71.3105 54.2265 70.4262 54.6067 69.9775 55.3782C69.5288 56.1496 70.7489 58.464 71.5204 58.7212C72.0083 58.8838 74.0559 58.315 74.3491 57.4354C74.5488 56.8364 73.2733 54.4726 72.2919 54.3496Z" fill="#142D57"/>
<circle cx="44.2619" cy="64.1215" r="2.57155" fill="#A8C7DE"/>
<path d="M84.8327 18.4866L84.0612 15.4007C84.0612 15.4007 80.9753 16.9436 78.4038 17.2008C75.9056 17.4506 71.2034 16.9436 71.2034 16.9436V20.0295C71.2034 20.0295 75.5568 20.8542 78.6609 20.5438C81.2325 20.2866 84.8327 18.4866 84.8327 18.4866Z" fill="#00FFD1"/>
<path d="M29.0898 9.34737C17.864 15.5232 12.7384 29.0899 17.5178 40.9775C23.1065 54.8783 36.8044 58.2069 54.291 49.9779C64.8028 45.0312 72.683 33.0057 63.5486 18.0907C56.6021 6.74816 40.7432 2.93624 29.0898 9.34737Z" fill="#132C56"/>
<path d="M43.7476 13.2047C42.7788 15.5191 43.2333 17.062 43.2333 17.062C43.2333 17.062 51.1234 20.4188 54.8053 24.2624C60.2056 29.8999 61.7485 37.1202 61.7485 37.1202C61.7485 37.1202 62.2091 38.1388 62.7771 38.1488C63.2792 38.1576 63.8057 37.3773 63.8057 37.3773C63.8057 37.3773 66.3178 29.5728 60.977 20.1479C57.4797 13.9761 48.2882 10.0123 46.8335 10.376C46.062 10.5688 44.6088 11.1474 43.7476 13.2047Z" fill="#F6F9F9"/>
<circle cx="35.0043" cy="38.4059" r="5.14311" fill="#5DB8D1"/>
<circle cx="29.8612" cy="45.6063" r="1.54293" fill="#5DB8D1"/>
<ellipse cx="13.1202" cy="41.7092" rx="2.05724" ry="2.81886" transform="rotate(-17.308 13.1202 41.7092)" fill="#132C56"/>
<path d="M31.0872 132.406C29.2871 127.263 28.0013 123.149 30.5729 121.349C32.73 119.839 34.6873 119.034 39.3161 115.177C41.4388 113.408 42.719 107.324 42.719 107.324C42.719 107.324 41.5334 105.801 40.6019 103.091C39.8492 100.9 39.0423 99.1681 39.3161 96.919C39.4162 96.097 39.3161 94.8618 39.3161 94.8618L38.6045 90.8657L36.2303 87.1471C36.2303 87.1471 34.4693 86.7907 33.9159 85.8613C33.2003 84.6595 34.9445 82.5183 34.9445 82.5183C34.9445 82.5183 34.4302 81.2325 33.4016 81.2325C32.5884 81.2325 21.3153 92.5474 17.2008 95.8904C15.042 97.6444 10.7719 98.9763 7.68602 98.4619C5.84342 98.1548 4.91714 96.0088 4.91714 96.0088C4.91714 96.0088 8.30156 97.0277 10.3174 96.7803C12.3723 96.5281 13.5905 96.1635 14.9462 94.723C19.0607 90.3514 21.8461 85.7909 28.3183 78.7794C31.4042 75.4364 41.4332 68.2286 41.4332 72.0933C41.4332 74.4077 40.4046 83.2367 44.0048 82.6367C45.609 82.3693 48.3764 80.5795 48.3764 80.5795L61.2342 75.4364C61.2342 75.4364 63.2345 73.6784 63.8057 72.8648C64.6095 71.72 65.5344 69.5218 65.5344 69.5218L66.0603 69.4034L67.0889 69.1462C67.0889 69.1462 66.7329 71.2003 67.4059 71.8362C68.1395 72.5293 69.9775 72.0933 69.9775 72.0933L83.8639 67.4645C83.8639 67.4645 83.5159 69.5672 82.5781 70.0361C81.0352 70.8076 68.6917 76.2078 68.6917 76.2078L57.634 81.3509L44.5191 85.2083C44.5191 85.2083 45.4827 90.3117 47.3478 92.9229C48.6336 94.723 50.5102 95.2373 52.4909 95.2373C56.8626 95.2373 65.7503 94.0994 74.3491 91.1228C81.0352 88.8084 87.1471 82.5183 87.1471 82.5183C87.1471 82.5183 87.2756 84.0612 86.6328 85.347C86.1184 86.3756 80.778 93.6944 74.6063 96.5231C65.6349 100.635 54.0831 99.8818 51.7194 100.895C49.9194 101.666 52.4658 109.964 50.4337 115.553C47.3478 124.039 40.1474 122.753 40.6618 127.639C40.907 129.968 43.4905 133.296 46.062 134.582C47.8786 135.49 43.2333 135.354 41.4332 134.582C39.0228 133.549 42.1218 139.84 44.7762 141.268C46.9888 142.459 51.4025 141.268 51.4025 141.268C51.4025 141.268 51.1369 143.006 49.3452 143.721C45.6802 145.184 40.6081 144.099 37.2589 141.664C34.2174 139.453 32.2948 135.857 31.0872 132.406Z" fill="#147575" fill-opacity="0.3"/>
<path d="M72.0347 133.811C74.467 135.614 79.6896 133.949 79.6896 133.949C79.6896 133.949 77.9493 137.446 71.2633 136.382C67.5142 135.785 63.8058 130.21 63.8058 130.21C63.8058 130.21 69.7441 123.692 71.5204 118.381C73.153 113.501 72.549 105.266 72.549 105.266C72.549 105.266 74.4298 100.335 75.6349 101.923C75.9619 102.354 76.4064 103.981 76.4064 103.981C76.4064 103.981 77.435 114.01 76.6635 118.381C76.0228 122.012 72.2919 126.61 72.2919 126.61C72.2919 126.61 74.092 127.343 74.092 128.41C74.092 128.925 70.3416 128.093 69.7203 129.696C69.4663 130.352 69.9775 131.496 69.9775 131.496C69.9775 131.496 71.0633 133.09 72.0347 133.811Z" fill="#147575" fill-opacity="0.3"/>
</svg>
