<svg width="518" height="110" viewBox="0 0 518 110" fill="none" xmlns="http://www.w3.org/2000/svg">
<path d="M0 110H-0.5V110.5H0H518H518.5V110H518C518.5 110 518.5 109.999 518.5 109.998V109.993L518.5 109.975V109.972C518.5 109.957 518.499 109.937 518.499 109.912C518.498 109.887 518.498 109.856 518.497 109.821C518.496 109.778 518.494 109.727 518.492 109.668C518.484 109.455 518.467 109.143 518.435 108.736C518.371 107.924 518.243 106.738 517.987 105.233C517.476 102.221 516.456 97.9295 514.418 92.7847C510.342 82.4921 502.2 68.7979 485.947 55.1175C453.445 27.7604 388.558 0.5 259 0.5C129.442 0.5 64.5552 27.7604 32.053 55.1175C15.7997 68.7979 7.65812 82.4921 3.582 92.7847C1.54452 97.9295 0.524027 102.221 0.0129091 105.233C-0.242647 106.738 -0.370871 107.924 -0.435207 108.736C-0.467375 109.143 -0.483573 109.455 -0.491729 109.668C-0.495807 109.775 -0.497875 109.856 -0.498923 109.912C-0.499447 109.939 -0.499716 109.961 -0.499855 109.975L-0.499979 109.993L-0.499997 109.998C-0.5 109.999 -0.5 110 0 110Z" fill="#F7F7F7" stroke="black"/>
<circle cx="66.5" cy="77.5" r="14.5" fill="#D2D3D5" stroke="white" stroke-width="2"/>
<circle cx="370" cy="51" r="19" fill="#D2D3D5" stroke="white" stroke-width="2"/>
<circle cx="133.5" cy="25.5" r="8.5" fill="#D2D3D5" stroke="white" stroke-width="2"/>
<circle cx="473.5" cy="74.5" r="11.5" fill="#D2D3D5" stroke="white" stroke-width="2"/>
<path d="M198 74C161 74 161 110 161 110H235C235 110 235 74 198 74Z" fill="#D2D3D5" stroke="white" stroke-width="2"/>
</svg>
