<svg width="170" height="60" viewBox="0 0 170 60" fill="none" xmlns="http://www.w3.org/2000/svg">
<path d="M58.5004 51.5436L35.5776 32.2166C35.6647 39.8474 33.8293 44.852 31.0484 48.5396C28.5952 51.7928 25.4208 53.973 22.4833 55.9905C22.2916 56.1221 22.101 56.2531 21.9117 56.3835C21.9841 56.4014 22.06 56.4191 22.1395 56.4367C23.1192 56.6531 24.491 56.8113 26.1623 56.8999C29.495 57.0765 33.8839 56.9696 38.4113 56.5665C42.9397 56.1633 47.5693 55.467 51.3899 54.4773C53.3007 53.9823 54.9862 53.4198 56.3465 52.7953C57.2373 52.3864 57.9555 51.9657 58.5004 51.5436Z" fill="#FF2424" stroke="black" stroke-width="2"/>
<path d="M58.5004 8.43839L35.5776 27.7654C35.6647 20.1347 33.8293 15.1301 31.0484 11.4424C28.5952 8.18923 25.4208 6.00899 22.4833 3.99149C22.2916 3.85988 22.101 3.72897 21.9117 3.59849C21.9841 3.58065 22.06 3.56291 22.1395 3.54535C23.1192 3.32895 24.491 3.17071 26.1623 3.08214C29.495 2.90552 33.8839 3.01241 38.4113 3.41554C42.9397 3.81875 47.5693 4.51504 51.3899 5.50472C53.3007 5.9997 54.9862 6.56223 56.3465 7.18669C57.2373 7.59564 57.9555 8.0163 58.5004 8.43839Z" fill="#FF2424" stroke="black" stroke-width="2"/>
<path d="M156.5 19L139.5 11L139.5 49L156.5 41L169.5 30L156.5 19Z" fill="#FF3737"/>
<path d="M140 49L140 11.5L109 1.5L79 2.5L52 12L38.5 22.5L35 29.5L38.5 37.5L52 48L79 58L109 58L140 49Z" fill="white"/>
<path d="M95.5 59C78.8414 59 63.7585 54.1766 52.8554 48.0652C47.4029 45.0089 43.0249 41.6468 40.0245 38.4346C36.9878 35.1836 35.5 32.2358 35.5 30C35.5 27.7642 36.9878 24.8164 40.0245 21.5654C43.0249 18.3532 47.4029 14.9911 52.8554 11.9348C63.7585 5.82343 78.8414 0.999996 95.5 0.999997C112.147 0.999997 130.624 6.69174 144.966 13.2836C152.13 16.5766 158.225 20.0769 162.512 23.1703C164.658 24.7192 166.324 26.1461 167.441 27.3741C168 27.9881 168.402 28.5311 168.659 28.9951C168.921 29.4672 169 29.7959 169 30C169 30.2041 168.921 30.5328 168.659 31.005C168.402 31.4689 168 32.0119 167.441 32.6259C166.324 33.8539 164.658 35.2808 162.512 36.8297C158.225 39.9231 152.13 43.4234 144.966 46.7164C130.624 53.3082 112.147 59 95.5 59Z" stroke="black" stroke-width="2"/>
<line x1="140" y1="11" x2="140" y2="49" stroke="black" stroke-width="2"/>
<circle cx="113.5" cy="29.5" r="13.5" transform="rotate(90 113.5 29.5)" fill="#16D3D3" stroke="black" stroke-width="2"/>
<line x1="64.5" y1="29.5" x2="26.5" y2="29.5" stroke="black" stroke-width="3" stroke-linecap="round"/>
<line x1="30.5" y1="38.5" x2="12.5" y2="38.5" stroke="black" stroke-width="3" stroke-linecap="round"/>
<line x1="27.5" y1="20.5" x2="9.5" y2="20.5" stroke="black" stroke-width="3" stroke-linecap="round"/>
<line x1="19.5" y1="29.5" x2="1.5" y2="29.5" stroke="black" stroke-width="3" stroke-linecap="round"/>
</svg>
