<svg width="300" height="141" viewBox="0 0 300 141" fill="none" xmlns="http://www.w3.org/2000/svg">
<path d="M219.5 46C219.5 58.0399 212.126 69.1282 199.816 77.2761C187.517 85.4163 170.439 90.5 151.5 90.5C132.561 90.5 115.483 85.4163 103.184 77.2761C90.8736 69.1282 83.5 58.0399 83.5 46C83.5 33.9601 90.8736 22.8718 103.184 14.7239C115.483 6.58369 132.561 1.5 151.5 1.5C170.439 1.5 187.517 6.58369 199.816 14.7239C212.126 22.8718 219.5 33.9601 219.5 46Z" fill="#C9C9C9" fill-opacity="0.5" stroke="black" stroke-width="3"/>
<path d="M298.5 79C298.5 84.7918 294.751 90.5837 287.319 96.0892C279.916 101.573 269.108 106.576 255.618 110.803C228.654 119.251 191.312 124.5 150 124.5C108.688 124.5 71.3458 119.251 44.3825 110.803C30.8919 106.576 20.0837 101.573 12.6806 96.0892C5.24876 90.5837 1.5 84.7918 1.5 79C1.5 73.2082 5.24876 67.4163 12.6806 61.9108C20.0837 56.4265 30.8919 51.4244 44.3825 47.1974C71.3458 38.7489 108.688 33.5 150 33.5C191.312 33.5 228.654 38.7489 255.618 47.1974C269.108 51.4244 279.916 56.4265 287.319 61.9108C294.751 67.4163 298.5 73.2082 298.5 79Z" fill="#4E4E4E" stroke="black" stroke-width="3"/>
<path d="M294.5 85C294.5 86.8726 293.705 88.9294 291.958 91.1448C290.21 93.3614 287.57 95.6548 284.055 97.9567C277.026 102.56 266.717 107.056 253.735 111.003C227.789 118.89 191.439 124.5 150 124.5C108.561 124.5 72.3366 118.89 46.5169 111.004C33.5979 107.057 23.3523 102.561 16.3707 97.9592C12.8796 95.6579 10.2587 93.3651 8.52366 91.149C6.78973 88.9343 6 86.8761 6 85C6 81.3384 9.09523 77.7674 16.1747 74.4936C23.1347 71.2752 33.3694 68.6293 46.3173 66.5428C72.1834 62.3746 108.464 60.5 150 60.5C191.535 60.5 227.942 62.3746 253.934 66.543C266.945 68.6296 277.243 71.2757 284.251 74.4952C291.382 77.7717 294.5 81.3442 294.5 85Z" fill="#B1B1B1" stroke="black" stroke-width="3"/>
<path d="M243.5 114C243.5 116.963 241.374 120.122 236.698 123.265C232.075 126.371 225.287 129.227 216.765 131.649C199.741 136.487 176.135 139.5 150 139.5C123.865 139.5 100.259 136.487 83.2349 131.649C74.7126 129.227 67.9248 126.371 63.3022 123.265C58.6256 120.122 56.5 116.963 56.5 114C56.5 111.037 58.6256 107.878 63.3022 104.735C67.9248 101.629 74.7126 98.7731 83.2349 96.351C100.259 91.5125 123.865 88.5 150 88.5C176.135 88.5 199.741 91.5125 216.765 96.351C225.287 98.7731 232.075 101.629 236.698 104.735C241.374 107.878 243.5 111.037 243.5 114Z" fill="#4E4E4E" stroke="black" stroke-width="3"/>
<path d="M191.5 127.5C191.5 128.288 190.89 129.409 188.852 130.713C186.884 131.972 183.936 133.162 180.16 134.184C172.63 136.221 162.143 137.5 150.5 137.5C138.857 137.5 128.37 136.221 120.84 134.184C117.064 133.162 114.116 131.972 112.148 130.713C110.11 129.409 109.5 128.288 109.5 127.5C109.5 126.712 110.11 125.591 112.148 124.287C114.116 123.028 117.064 121.838 120.84 120.816C128.37 118.779 138.857 117.5 150.5 117.5C162.143 117.5 172.63 118.779 180.16 120.816C183.936 121.838 186.884 123.028 188.852 124.287C190.89 125.591 191.5 126.712 191.5 127.5Z" fill="#F7FF00" stroke="black" stroke-width="3"/>
<path d="M68.0969 53.6098C68.2425 54.4585 67.9009 55.4779 66.8881 56.4599C65.8815 57.4359 64.3151 58.2505 62.4124 58.5769C60.5097 58.9033 58.7614 58.6575 57.4871 58.0729C56.2048 57.4846 55.543 56.6374 55.3974 55.7886C55.2517 54.9398 55.5933 53.9205 56.6061 52.9385C57.6127 51.9625 59.1791 51.1479 61.0818 50.8215C62.9845 50.495 64.7328 50.7409 66.0072 51.3255C67.2894 51.9138 67.9512 52.761 68.0969 53.6098Z" fill="#62FFB1" stroke="black" stroke-width="3"/>
<path d="M24.0969 63.6098C24.2425 64.4585 23.9009 65.4779 22.8881 66.4599C21.8815 67.4359 20.3151 68.2505 18.4124 68.5769C16.5097 68.9033 14.7614 68.6575 13.4871 68.0729C12.2048 67.4846 11.543 66.6374 11.3974 65.7886C11.2517 64.9398 11.5933 63.9205 12.6061 62.9385C13.6127 61.9625 15.1791 61.1479 17.0818 60.8215C18.9845 60.495 20.7328 60.7409 22.0072 61.3255C23.2894 61.9138 23.9512 62.761 24.0969 63.6098Z" fill="#62FFB1" stroke="black" stroke-width="3"/>
<path d="M114.897 47.5666C114.992 48.4226 114.59 49.4198 113.521 50.34C112.458 51.2545 110.846 51.9746 108.927 52.1875C107.009 52.4003 105.278 52.0511 104.04 51.3918C102.795 50.7285 102.185 49.8435 102.09 48.9875C101.995 48.1316 102.397 47.1343 103.466 46.2142C104.529 45.2997 106.141 44.5796 108.06 44.3667C109.978 44.1538 111.709 44.5031 112.946 45.1623C114.191 45.8257 114.802 46.7107 114.897 47.5666Z" fill="#62FFB1" stroke="black" stroke-width="3"/>
<path d="M157.936 46.2771C157.936 47.1383 157.427 48.0852 156.263 48.8818C155.105 49.6735 153.424 50.2114 151.493 50.2114C149.563 50.2114 147.881 49.6735 146.724 48.8818C145.56 48.0852 145.051 47.1383 145.051 46.2771C145.051 45.4159 145.56 44.469 146.724 43.6724C147.881 42.8807 149.563 42.3427 151.493 42.3427C153.424 42.3427 155.105 42.8807 156.263 43.6724C157.427 44.469 157.936 45.4159 157.936 46.2771Z" fill="#62FFB1" stroke="black" stroke-width="3"/>
<path d="M199.897 48.9875C199.992 48.1316 199.59 47.1343 198.521 46.2142C197.458 45.2997 195.846 44.5796 193.927 44.3667C192.009 44.1538 190.278 44.5031 189.04 45.1623C187.795 45.8257 187.185 46.7107 187.09 47.5666C186.995 48.4226 187.397 49.4198 188.466 50.34C189.529 51.2545 191.141 51.9746 193.06 52.1875C194.978 52.4003 196.709 52.0511 197.946 51.3918C199.191 50.7285 199.802 49.8435 199.897 48.9875Z" fill="#62FFB1" stroke="black" stroke-width="3"/>
<path d="M230.397 53.6098C230.252 54.4585 230.593 55.4779 231.606 56.4599C232.613 57.4359 234.179 58.2505 236.082 58.5769C237.984 58.9033 239.733 58.6575 241.007 58.0729C242.289 57.4846 242.951 56.6374 243.097 55.7886C243.242 54.9398 242.901 53.9205 241.888 52.9385C240.881 51.9625 239.315 51.1479 237.412 50.8215C235.51 50.495 233.761 50.7409 232.487 51.3255C231.205 51.9138 230.543 52.761 230.397 53.6098Z" fill="#62FFB1" stroke="black" stroke-width="3"/>
<path d="M274.397 63.6098C274.252 64.4585 274.593 65.4779 275.606 66.4599C276.613 67.4359 278.179 68.2505 280.082 68.5769C281.984 68.9033 283.733 68.6575 285.007 68.0729C286.289 67.4846 286.951 66.6374 287.097 65.7886C287.242 64.9398 286.901 63.9205 285.888 62.9385C284.881 61.9625 283.315 61.1479 281.412 60.8215C279.51 60.495 277.761 60.7409 276.487 61.3255C275.205 61.9138 274.543 62.761 274.397 63.6098Z" fill="#62FFB1" stroke="black" stroke-width="3"/>
</svg>
