<svg width="245" height="143" viewBox="0 0 245 143" fill="none" xmlns="http://www.w3.org/2000/svg">
<circle cx="127.514" cy="71.5" r="71" stroke="black"/>
<path d="M176.175 20.5H78.8841C78.8841 20.5 96.7937 1.00001 127.514 1C158.234 0.999987 176.175 20.5 176.175 20.5Z" fill="#8E6F4C"/>
<path d="M176.648 122H78.3735C78.3735 122 96.5139 142 128.014 142C159.514 142 176.648 122 176.648 122Z" fill="#CCAA76"/>
<path d="M176.212 20.5H78.8253C78.8253 20.5 73.6249 25.3446 71.0139 29C68.4029 32.6554 66.2896 36.5 66.2896 36.5H188.727C188.727 36.5 187.514 34.2143 183.514 28.5C179.514 22.7857 176.212 20.5 176.212 20.5Z" fill="#D7C098"/>
<path d="M176.669 122H78.3023C78.3023 122 73.5139 117.5 71.0139 114C68.5139 110.5 66.0139 106 66.0139 106H189.014C189.014 106 185.78 111.691 184.514 113.5C183.248 115.309 176.669 122 176.669 122Z" fill="#B19D88"/>
<path d="M198.014 71H57.0139C57.0139 71 57.0139 64.5 58.0139 59C59.1048 53 60.5139 49.5 60.5139 49.5H194.514C194.514 49.5 196.014 54 197.014 59.5C198.014 65 198.014 71 198.014 71Z" fill="#CEAC75"/>
<path d="M198.014 71H57.0139C57.0139 71 56.923 78 58.0139 84C59.1048 90 60.0139 92 60.0139 92H195.014C195.014 92 195.832 90 197.014 83.5C198.196 77 198.014 71 198.014 71Z" fill="#8E6F4C"/>
<path d="M194.514 49.5H60.5139C60.5139 49.5 62.0139 44.75 63.5139 41.5C65.0139 38.25 66.2906 36.5 66.2906 36.5H188.725C188.725 36.5 190.518 39.3148 191.514 41.5C193.249 45.3044 194.514 49.5 194.514 49.5Z" fill="#AF9C89"/>
<path d="M195.014 92H60.0139C60.0139 92 61.5139 97.25 63.0139 100.5C64.5139 103.75 66.0139 106 66.0139 106H189.014C189.014 106 191.018 102.685 192.014 100.5C193.749 96.6956 195.014 92 195.014 92Z" fill="#DAC195"/>
<path d="M57.0139 71.5C57.0139 137.5 122.014 142 122.014 142C122.014 142 70.0139 125.5 70.0139 71.5C70.0139 17.5 121.014 1 121.014 1C121.014 1 57.0139 5.5 57.0139 71.5Z" fill="black" fill-opacity="0.63"/>
<path d="M1.743 102.612C-6.53358 79.6932 57.0139 51 59.5139 49.5C59.5139 49.5 58.2639 53.5 57.5139 57C56.7639 60.5 56.5139 68 56.5139 68C56.5139 68 25.3867 82.1057 25.3867 95.9775C25.3867 109.849 90.0312 106.7 130.268 98.993C167.787 91.8062 226.748 66.4245 224.843 53.1559C222.938 39.8873 198.183 39.5 191.514 39.5L187.014 32C184.914 28.5 183.014 26.5 183.014 26.5C187.258 26.5 249.486 24.8093 243.637 54.9652C237.787 85.1212 158.414 110.222 130.268 114.071C102.122 117.92 81.768 121.308 49.0305 119.499C29.877 118.44 6.0991 114.674 1.743 102.612Z" fill="#FED585" stroke="black"/>
</svg>
